<?xml version="1.0" encoding="UTF-8"?>
<svg width="100pt" height="100pt" version="1.1" viewBox="0 0 100 100" xmlns="http://www.w3.org/2000/svg">
 <path fill="#F5F5F5" d="m43.801 82h12.398c1.5508 0 2.8008-1.25 2.8008-2.8008v-17.398c0-1.5508 1.25-2.8008 2.8008-2.8008h17.398c1.5508 0 2.8008-1.25 2.8008-2.8008v-12.398c0-1.5508-1.25-2.8008-2.8008-2.8008h-17.398c-1.5508 0-2.8008-1.25-2.8008-2.8008v-17.398c0-1.5508-1.25-2.8008-2.8008-2.8008h-12.398c-1.5508 0-2.8008 1.25-2.8008 2.8008v17.398c0 1.5508-1.25 2.8008-2.8008 2.8008h-17.398c-1.5508 0-2.8008 1.25-2.8008 2.8008v12.398c0 1.5508 1.25 2.8008 2.8008 2.8008h17.398c1.5508 0 2.8008 1.25 2.8008 2.8008v17.398c0 1.5508 1.25 2.8008 2.8008 2.8008z"/>
</svg>
