<?xml version="1.0" encoding="UTF-8"?>
<svg width="100pt" height="100pt" version="1.1" viewBox="0 0 100 100" xmlns="http://www.w3.org/2000/svg">
 <path fill="#FAFAFA" d="m74.609 55.516c-9.6641 0-17.5 7.8359-17.5 17.5s7.8359 17.5 17.5 17.5 17.5-7.8359 17.5-17.5-7.8359-17.5-17.5-17.5zm9.1328 20h-18.266c-1.3828 0-2.5-1.1172-2.5-2.5s1.1172-2.5 2.5-2.5h18.266c1.3828 0 2.5 1.1172 2.5 2.5-0.003907 1.3828-1.1211 2.5-2.5 2.5zm-58.371-22.324c0.80078-0.95703 2.2734-0.95703 3.0703 0l7.8906 9.4609c0.80078 0.95703 2.2734 0.95703 3.0703 0l16.785-20.125c0.80078-0.95703 2.2734-0.95703 3.0703 0l7.7617 9.3086c2.3711-0.85156 4.9219-1.3164 7.582-1.3164 0.84375 0 1.6797 0.050781 2.5 0.14062l0.007813-36.676c0-2.4805-2.0195-4.5-4.5-4.5h-60.219c-2.4805 0-4.5 2.0195-4.5 4.5v57.035c0 2.4805 2.0195 4.5 4.5 4.5h39.859c-0.089844-0.82031-0.14062-1.6562-0.14062-2.5s0.050781-1.6797 0.14062-2.5l-39.359-0.003906v-2.3594zm3.0195-30.797c4.2031 0 7.6094 3.4062 7.6094 7.6094s-3.4062 7.6094-7.6094 7.6094-7.6094-3.4062-7.6094-7.6094c-0.003906-4.2031 3.4062-7.6094 7.6094-7.6094z" />
</svg>
