<?xml version="1.0" encoding="UTF-8"?>
<svg width="100pt" height="100pt" version="1.1" viewBox="0 0 100 100" xmlns="http://www.w3.org/2000/svg">
 <path d="m25.371 53.191c0.80078-0.95703 2.2734-0.95703 3.0703 0l7.8906 9.4609c0.80078 0.95703 2.2734 0.95703 3.0703 0l16.785-20.125c0.80078-0.95703 2.2734-0.95703 3.0703 0l7.7617 9.3086c2.3711-0.85156 4.9219-1.3164 7.582-1.3164 0.84375 0 1.6797 0.050781 2.5 0.14062l0.007813-36.676c0-2.4805-2.0195-4.5-4.5-4.5h-60.219c-2.4805 0-4.5 2.0195-4.5 4.5v57.035c0 2.4805 2.0195 4.5 4.5 4.5h39.859c-0.089844-0.82031-0.14062-1.6562-0.14062-2.5s0.050781-1.6797 0.14062-2.5l-39.359-0.003906v-2.3594zm3.0195-30.797c4.2031 0 7.6094 3.4062 7.6094 7.6094s-3.4062 7.6094-7.6094 7.6094-7.6094-3.4062-7.6094-7.6094c-0.003906-4.2031 3.4062-7.6094 7.6094-7.6094zm46.219 33.121c-9.6641 0-17.5 7.8359-17.5 17.5s7.8359 17.5 17.5 17.5 17.5-7.8359 17.5-17.5-7.8359-17.5-17.5-17.5zm7.3516 22.902c-0.49219 0.66797-1.25 1.0195-2.0156 1.0195-0.51562 0-1.0312-0.15625-1.4766-0.48438l-5.3359-3.9219c-0.64062-0.47266-1.0195-1.2188-1.0195-2.0156v-8.957c0-1.3828 1.1172-2.5 2.5-2.5 1.3828 0 2.5 1.1172 2.5 2.5v7.6914l4.3164 3.1719c1.1094 0.82031 1.3477 2.3867 0.53125 3.4961z" fill="#f4f4f4"/>
</svg>
