<?xml version="1.0" encoding="UTF-8"?>
<svg width="100pt" height="100pt" version="1.1" viewBox="0 0 100 100" xmlns="http://www.w3.org/2000/svg">
 <path fill="#F5F5F5" d="m8.1406 47.902h14.504c1.5117 0 2.8398-0.98828 3.2812-2.4297 1.2227-4.043 3.4258-7.6484 6.3555-10.582 4.6445-4.6289 10.918-7.4414 17.98-7.4492 7.0547 0.007813 13.332 2.8242 17.98 7.4492 0.14453 0.14844 0.26953 0.30859 0.41016 0.45703l-9.1914 10.809c-0.25781 0.30078-0.3125 0.72266-0.15625 1.0781 0.17187 0.36328 0.53125 0.58984 0.92187 0.58594l38.527 0.10938c0.29297 0.003906 0.58203-0.12891 0.76953-0.35156 0.19531-0.23047 0.27734-0.52734 0.23047-0.81641l-6.2695-38.016c-0.0625-0.38672-0.34766-0.70312-0.73047-0.80859-0.37891-0.10547-0.78516 0.019531-1.0391 0.31641l-9.457 11.117c-8.2734-7.9258-19.551-12.855-31.918-12.875-0.058594-0.003906-0.13281-0.003906-0.21484 0-12.73 0.03125-24.324 5.2344-32.656 13.582-6.3516 6.3398-10.863 14.555-12.691 23.73-0.19922 1.0117 0.0625 2.0469 0.71484 2.8438 0.65234 0.79297 1.6172 1.25 2.6484 1.25zm90.844 10.938c-0.65234-0.79688-1.6172-1.2578-2.6445-1.2578h-14.508c-1.5078 0-2.8359 0.99219-3.2773 2.4336-1.2227 4.0391-3.4258 7.6484-6.3555 10.586-4.6406 4.6211-10.914 7.4375-17.98 7.4492-7.0547-0.011719-13.332-2.8281-17.98-7.4492-0.14453-0.14453-0.26953-0.32031-0.41016-0.46484l9.1953-10.812c0.25781-0.29297 0.3125-0.71875 0.15234-1.0742-0.17188-0.35547-0.52734-0.58594-0.92188-0.58594l-38.527-0.10156c-0.29297 0-0.58203 0.125-0.77344 0.35156-0.19531 0.23047-0.27734 0.52344-0.23047 0.82422l6.2695 38.012c0.0625 0.38672 0.34375 0.69922 0.73047 0.8125 0.37891 0.10547 0.78516-0.023438 1.0391-0.32031l9.457-11.113c8.2773 7.9219 19.555 12.859 31.922 12.871 0.058594 0.003906 0.13281 0.003906 0.21484 0 12.73-0.03125 24.324-5.2383 32.656-13.582 6.3477-6.3398 10.863-14.562 12.691-23.727 0.19531-1.0195-0.0625-2.0508-0.71875-2.8516z"/>
</svg>
