<?xml version="1.0" encoding="UTF-8"?>
<svg width="100pt" height="100pt" version="1.1" viewBox="0 0 100 100" xmlns="http://www.w3.org/2000/svg">
 <path fill="#F5F5F5" d="m18.5 51.898c0 2.543 2.0586 4.6016 4.6016 4.6016 0.69531 0 1.3125 0.45312 1.5195 1.1211 0.51172 1.7031 1.1953 3.3516 2.0391 4.918 0.33594 0.62109 0.22266 1.3867-0.28125 1.8828-0.85938 0.86328-1.3398 2.0352-1.3398 3.2578 0 1.2148 0.48047 2.3828 1.3398 3.2422l2.6992 2.6992c1.8203 1.7422 4.6953 1.7344 6.5-0.019532 0.50391-0.48828 1.2656-0.59375 1.8828-0.26172 1.5664 0.84375 3.2148 1.5273 4.918 2.0391 0.66797 0.20703 1.1211 0.82422 1.1211 1.5195 0 2.543 2.0586 4.6016 4.6016 4.6016h3.8008-0.003906c2.543 0 4.6016-2.0586 4.6016-4.6016 0-0.69531 0.45312-1.3125 1.1211-1.5195 1.7031-0.51172 3.3516-1.1953 4.918-2.0391 0.62109-0.33594 1.3867-0.22266 1.8828 0.28125 1.8164 1.7383 4.6797 1.7383 6.5 0l2.6992-2.6992c0.85938-0.86719 1.3438-2.0352 1.3398-3.2578-0.003907-1.2188-0.49219-2.3867-1.3594-3.2422-0.48828-0.50391-0.59375-1.2656-0.26172-1.8828 0.84375-1.5664 1.5273-3.2148 2.0391-4.918 0.20703-0.66797 0.82422-1.1211 1.5195-1.1211 2.543 0 4.6016-2.0586 4.6016-4.6016v-3.8008 0.003906c0-2.543-2.0586-4.6016-4.6016-4.6016-0.69531 0-1.3125-0.45312-1.5195-1.1211-0.51172-1.7031-1.1953-3.3516-2.0391-4.918-0.33594-0.62109-0.22266-1.3867 0.28125-1.8828 0.86328-0.85938 1.3477-2.0273 1.3477-3.25 0-1.2188-0.48438-2.3867-1.3477-3.25l-2.6992-2.6992c-1.8203-1.7422-4.6953-1.7344-6.5 0.019532-0.50391 0.48828-1.2656 0.59375-1.8828 0.26172-1.5664-0.84375-3.2148-1.5273-4.918-2.0391-0.66797-0.20703-1.1211-0.82422-1.1211-1.5195 0-2.543-2.0586-4.6016-4.6016-4.6016h-3.8008 0.003906c-2.543 0-4.6016 2.0586-4.6016 4.6016 0 0.69531-0.45312 1.3125-1.1211 1.5195-1.7031 0.51172-3.3516 1.1953-4.918 2.0391-0.62109 0.33594-1.3867 0.22266-1.8828-0.28125-1.8164-1.7383-4.6797-1.7383-6.5 0l-2.6992 2.6992c-0.86328 0.86328-1.3516 2.0352-1.3477 3.2578 0.003906 1.2188 0.49609 2.3867 1.3672 3.2422 0.48828 0.50391 0.59375 1.2656 0.26172 1.8828-0.84375 1.5664-1.5273 3.2148-2.0391 4.918-0.20703 0.66797-0.82422 1.1211-1.5195 1.1211-2.543 0-4.6016 2.0586-4.6016 4.6016zm31.5-15.398c5.4609 0 10.383 3.2891 12.473 8.332 2.0898 5.0469 0.93359 10.852-2.9258 14.715-3.8633 3.8594-9.668 5.0156-14.715 2.9258-5.043-2.0898-8.332-7.0117-8.332-12.473 0.011719-7.4531 6.0469-13.488 13.5-13.5z"/>
</svg>
