<?xml version="1.0" encoding="UTF-8"?>
<svg role="img" xmlns="http://www.w3.org/2000/svg" width="128" height="128" viewBox="0 0 128 128">
    <path fill="#FAFAFA" d="m46.879 43.328 6.9414-4.1719c3.7305-2.2383 8.3008-2.7617 12.371-1.2109 2.4102 0.92188 5.1289 1.1992 7.9492 0.67188 5.6289-1.0703 10.18-5.5703 11.309-11.191 2.0312-10.09-6.5586-18.91-16.609-17.219-5.3594 0.89844-9.8008 4.9297-11.371 10.129-0.25 0.82031-0.41016 1.6211-0.51172 2.4102-0.53906 4.3203-3.3008 8.0586-7.0312 10.301l-4.2383 2.5391c-3.6406 2.1797-8.0391 2.3281-12.02 0.85937-1.5508-0.57031-3.2305-0.89062-4.9805-0.89062-8.9297 0-16 8.1797-14.141 17.43 1.1289 5.6211 5.6797 10.121 11.309 11.191 2.8203 0.53906 5.5391 0.25 7.9492-0.67188 4.0703-1.5508 8.6289-1.0312 12.371 1.2109l6.9219 4.1484c2.3398 1.3984 3.7617 3.9297 3.7617 6.6484v0.039062c0 8.9102 8.1406 15.961 17.359 14.148 5.6211-1.1016 10.141-5.6289 11.25-11.25 1.8086-9.2188-5.2383-17.359-14.148-17.359-1.75 0-3.4297 0.32031-4.9805 0.89062-3.9805 1.4688-8.3711 1.3203-12.012-0.85938l-7.4609-4.4805c-2.3203-1.3906-3.7383-3.8984-3.7383-6.6094v-0.078125c-0.007812-2.7031 1.4219-5.2227 3.75-6.625z"/>
</svg>
